<svg width="26" height="27" viewBox="0 0 26 27" fill="none" xmlns="http://www.w3.org/2000/svg">
<path fill-rule="evenodd" clip-rule="evenodd" d="M3.52435 20.7856C2.79908 21.5387 1.62321 21.5387 0.897949 20.7856C0.172689 20.0323 0.172689 18.8112 0.897949 18.0581L7.0868 11.6312L7.09998 11.6176C7.60563 11.103 8.28541 10.8147 8.99343 10.8147C9.70147 10.8147 10.3813 11.103 10.8869 11.6176L10.9001 11.6312L14.0594 14.912L18.4176 10.1245L16.4864 8.11903C16.088 7.70536 15.9689 7.08322 16.1845 6.54274C16.4001 6.00223 16.9079 5.64983 17.4713 5.64983H24.2536C25.0228 5.64983 25.6464 6.29742 25.6464 7.09626V14.1394C25.6464 14.7244 25.3071 15.2519 24.7866 15.4757C24.2662 15.6996 23.6671 15.5759 23.2687 15.1622L21.045 12.8529L16.0232 18.3696C16.007 18.3874 15.9905 18.4049 15.9736 18.422C15.468 18.9367 14.7882 19.225 14.0802 19.225C13.3721 19.225 12.6923 18.9367 12.1867 18.422L12.1735 18.4084L8.99343 15.1061L3.52435 20.7856Z" fill="#6A9C89"/>
</svg>
